<svg xmlns="http://www.w3.org/2000/svg" version="1.1" xmlns:xlink="http://www.w3.org/1999/xlink" xmlns:svgjs="http://svgjs.com/svgjs" width="1440" height="560" preserveAspectRatio="none" viewBox="0 0 1440 560"><g mask="url(&quot;#SvgjsMask1109&quot;)" fill="none"><rect width="1440" height="560" x="0" y="0" fill="rgba(56, 56, 207, 1)"></rect><path d="M0,476.315C111.129,504.89,226.413,559.157,334.379,520.303C448.212,479.338,557.558,384.599,583.323,266.395C608.987,148.657,511.522,43.516,462.279,-66.466C426.506,-146.364,382.96,-216.909,334.339,-289.706C278.11,-373.893,248.468,-488.716,154.725,-526.945C60.236,-565.478,-45.454,-516.706,-142.117,-484.006C-235.391,-452.452,-324.534,-411.2,-393.928,-341.341C-466.652,-268.13,-520.372,-178.564,-545.055,-78.367C-571.455,28.8,-600.502,154.591,-538.609,245.975C-476.637,337.477,-341.149,329.273,-239.538,372.728C-157.9,407.641,-85.993,454.203,0,476.315" fill="#232390"></path><path d="M1440 845.767C1507.077 857.5930000000001 1573.455 888.549 1638.802 869.342 1712.838 847.581 1800.422 808.317 1820.71 733.864 1841.527 657.47 1755.556 594.005 1734.641 517.637 1717.333 454.43899999999996 1740.051 384.543 1709.2069999999999 326.731 1674.45 261.585 1624.6 192.90800000000002 1552.617 176.461 1480.901 160.075 1413.833 212.80700000000002 1347.22 244.022 1290.183 270.75 1240.8 305.19 1192.257 345.329 1134.165 393.36400000000003 1038.137 426.502 1035.432 501.832 1032.642 579.538 1131.403 618.141 1180.29 678.606 1215.1779999999999 721.7570000000001 1235.001 776.345 1281.662 806.3779999999999 1328.341 836.423 1385.331 836.129 1440 845.767" fill="#7c7cdf"></path></g><defs><mask id="SvgjsMask1109"><rect width="1440" height="560" fill="#ffffff"></rect></mask></defs></svg>