<svg xmlns="http://www.w3.org/2000/svg" version="1.1" xmlns:xlink="http://www.w3.org/1999/xlink" xmlns:svgjs="http://svgjs.com/svgjs" width="1440" height="500" preserveAspectRatio="none" viewBox="0 0 1440 500"><g mask="url(&quot;#SvgjsMask1047&quot;)" fill="none"><rect width="1440" height="500" x="0" y="0" fill="rgba(58, 58, 209, 1)"></rect><path d="M0,451.339C94.291,469.88,201.396,491.125,282.185,439.089C362.967,387.058,389.971,281.222,410.016,187.248C427.335,106.055,394.304,27.012,387.738,-55.748C380.601,-145.708,429.455,-252.721,369.741,-320.382C309.941,-388.14,195.739,-345.853,109.079,-371.489C22.163,-397.201,-47.692,-475.648,-138.193,-470.642C-235.976,-465.233,-340.485,-423.891,-396.448,-343.524C-451.649,-264.252,-435.543,-156.74,-423.52,-60.893C-413.719,17.239,-369.972,82.474,-334.209,152.628C-300.136,219.466,-274.802,290.567,-218.866,340.562C-156.64,396.178,-81.89,435.236,0,451.339" fill="#2828ad"></path><path d="M1440 1041.576C1540.084 1041.5700000000002 1625.422 971.992 1701.659 907.149 1770.617 848.498 1818.402 772.31 1854.2939999999999 689.202 1889.571 607.517 1901.804 521.788 1906.46 432.933 1912.134 324.63300000000004 1939.987 208.04899999999998 1884.383 114.94 1826.357 17.774999999999977 1720.028-63.874000000000024 1606.953-68.59100000000001 1495.28-73.24900000000002 1419.9 41.226 1320.024 91.39800000000002 1242.41 130.387 1154.351 139.709 1085.8890000000001 193.161 1006.2919999999999 255.307 919.317 323.464 896.726 421.889 873.689 522.255 914.066 627.516 965.748 716.583 1014.499 800.5989999999999 1098.193 852.2719999999999 1178.32 907.181 1260.88 963.7570000000001 1339.915 1041.5819999999999 1440 1041.576" fill="#6565db"></path></g><defs><mask id="SvgjsMask1047"><rect width="1440" height="500" fill="#ffffff"></rect></mask></defs></svg>