<?xml version="1.0" standalone="no"?>
<!DOCTYPE svg PUBLIC "-//W3C//DTD SVG 20010904//EN"
 "http://www.w3.org/TR/2001/REC-SVG-20010904/DTD/svg10.dtd">
<svg version="1.0" xmlns="http://www.w3.org/2000/svg"
 width="512.000000pt" height="512.000000pt" viewBox="0 0 512.000000 512.000000"
 preserveAspectRatio="xMidYMid meet">

<g transform="translate(0.000000,512.000000) scale(0.1,-0.100000)"
fill="#D9643A" width="1">
<path fill="red" d="M2399 4816 c-247 -186 -417 -460 -473 -761 -22 -118 -28 -232 -14
-258 27 -51 72 -61 112 -24 22 20 26 34 35 138 23 239 100 432 243 608 58 71
190 191 211 191 22 0 179 -152 237 -230 94 -128 154 -258 197 -430 15 -57 17
-176 20 -993 l4 -927 -458 2 -458 3 -5 693 c-5 672 -6 694 -24 708 -33 23 -82
18 -105 -12 -19 -25 -21 -40 -21 -203 l0 -176 -281 -325 c-155 -179 -289 -342
-300 -362 -42 -81 -53 -365 -17 -417 40 -56 35 -56 406 -59 l342 -3 0 -110 c0
-104 1 -111 25 -135 24 -24 25 -29 25 -168 l0 -144 -72 25 c-151 53 -325 40
-478 -35 -91 -44 -220 -168 -264 -252 l-29 -56 -62 4 c-68 5 -167 -17 -229
-49 -21 -11 -39 -19 -41 -17 -1 2 -9 43 -19 92 -60 311 -288 547 -594 611 -70
15 -159 19 -187 9 -8 -4 -22 -19 -30 -34 -29 -57 14 -110 89 -110 69 0 155
-23 243 -66 211 -101 342 -314 343 -555 0 -64 2 -68 35 -98 51 -45 99 -43 184
8 88 53 136 64 235 56 105 -8 128 5 181 106 46 88 130 176 203 213 130 66 260
71 413 17 91 -32 121 -32 175 4 43 28 49 52 54 230 l5 170 243 3 242 2 0 -187
c0 -210 6 -233 72 -273 52 -31 97 -26 191 24 126 67 201 77 369 50 31 -5 41
-2 62 20 54 53 24 110 -69 132 -126 29 -271 12 -394 -49 -36 -17 -69 -33 -73
-35 -5 -2 -8 68 -8 157 l0 160 28 13 c45 21 62 70 62 176 l0 92 323 1 c349 0
375 4 411 52 19 26 21 42 21 190 l0 162 -33 65 c-23 47 -109 153 -307 380
l-274 315 -1 370 c0 206 -5 410 -11 460 -27 222 -108 422 -242 601 -98 130
-302 304 -357 304 -18 0 -56 -22 -111 -64z m-499 -2296 l0 -390 -230 0 -230 0
0 118 c0 113 1 121 28 159 24 36 423 503 430 503 1 0 2 -175 2 -390z m1464
116 c151 -175 209 -249 216 -277 6 -21 9 -81 8 -131 l-3 -93 -232 -3 -233 -2
0 392 c0 386 0 392 19 373 10 -11 112 -127 225 -259z m-924 -721 l0 -65 -120
0 -120 0 0 65 0 65 120 0 120 0 0 -65z m390 0 l0 -65 -120 0 -120 0 0 65 0 65
120 0 120 0 0 -65z"/>
<path d="M2416 4050 c-103 -40 -168 -135 -168 -245 0 -109 55 -194 157 -241
168 -79 364 52 365 241 0 114 -76 218 -184 250 -65 20 -110 18 -170 -5z m140
-146 c117 -56 56 -233 -72 -209 -102 19 -116 169 -21 210 42 18 52 18 93 -1z"/>
<path d="M2462 3250 l-22 -21 0 -453 c0 -419 1 -454 18 -469 32 -29 67 -31 98
-4 l29 25 3 419 c2 230 0 433 -3 451 -12 67 -78 94 -123 52z"/>
<path d="M4892 1745 c-227 -50 -418 -193 -519 -392 -36 -69 -41 -75 -101 -103
-35 -16 -82 -45 -106 -65 -37 -30 -45 -33 -56 -20 -20 24 -116 85 -162 102
-31 11 -86 16 -196 18 l-152 3 -20 -25 c-27 -34 -25 -55 6 -92 32 -38 85 -54
139 -41 103 24 192 0 280 -75 99 -84 148 -84 246 1 45 39 79 59 119 71 68 19
83 32 105 91 62 165 215 310 384 362 35 11 100 24 145 29 64 7 84 14 98 31 25
31 22 66 -7 95 -20 21 -33 25 -82 24 -32 0 -86 -7 -121 -14z"/>
<path d="M2440 1407 c-47 -24 -51 -45 -48 -278 3 -197 5 -219 22 -238 25 -27
79 -28 105 -2 28 28 33 82 29 294 -3 171 -5 188 -23 206 -28 27 -56 33 -85 18z"/>
<path d="M3180 1071 c-97 -32 -204 -120 -234 -193 -24 -56 8 -108 67 -108 18
0 40 17 78 62 64 73 112 97 192 98 172 0 272 -153 217 -332 -17 -58 -6 -99 31
-112 49 -17 78 0 107 62 23 49 27 70 27 152 0 86 -3 101 -32 161 -38 76 -105
144 -184 185 -46 24 -68 28 -149 31 -52 1 -106 -1 -120 -6z"/>
<path d="M1787 1008 c-126 -27 -206 -127 -207 -256 0 -132 70 -198 143 -133
16 14 18 25 12 88 -10 103 23 152 100 152 48 0 72 -12 114 -61 70 -81 165 -19
121 79 -41 92 -175 155 -283 131z"/>
<path d="M335 885 c-167 -68 -250 -269 -181 -437 l24 -58 -68 0 c-62 0 -71 -2
-89 -26 -27 -34 -27 -64 0 -98 l20 -26 2519 0 2519 0 20 26 c56 71 5 124 -119
124 l-70 0 22 42 c20 37 23 58 23 143 0 89 -3 106 -27 150 -56 107 -156 175
-269 183 -62 4 -67 3 -87 -23 -12 -15 -22 -35 -22 -45 0 -31 39 -69 78 -75 72
-12 101 -26 136 -65 82 -91 52 -241 -58 -291 -37 -17 -69 -19 -297 -19 l-257
0 24 58 c32 77 32 151 1 180 -48 45 -110 17 -122 -55 -9 -53 -33 -108 -59
-132 -55 -51 -50 -51 -716 -51 -669 0 -647 -2 -698 53 -15 16 -26 45 -33 88
-6 38 -18 72 -29 83 -26 26 -76 25 -103 -3 -18 -18 -22 -31 -20 -81 1 -33 9
-76 18 -96 8 -20 15 -38 15 -40 0 -2 -250 -4 -555 -4 -444 0 -562 3 -588 14
-62 25 -117 111 -117 182 0 28 -40 64 -72 64 -14 0 -36 -9 -49 -19 -21 -17
-24 -28 -23 -78 1 -36 9 -77 23 -107 11 -27 21 -50 21 -52 0 -2 -144 -4 -320
-4 -266 0 -327 3 -357 15 -50 21 -72 42 -94 90 -54 116 13 241 141 265 29 5
54 10 56 10 13 0 44 49 44 70 0 70 -94 90 -205 45z"/>
</g>
</svg>
