<?xml version="1.0" standalone="no"?><svg xmlns="http://www.w3.org/2000/svg" viewBox="0 0 1440 320"><path fill="#00000030" fill-opacity="1" d="M0,288L10.9,277.3C21.8,267,44,245,65,229.3C87.3,213,109,203,131,186.7C152.7,171,175,149,196,128C218.2,107,240,85,262,74.7C283.6,64,305,64,327,96C349.1,128,371,192,393,202.7C414.5,213,436,171,458,154.7C480,139,502,149,524,176C545.5,203,567,245,589,224C610.9,203,633,117,655,106.7C676.4,96,698,160,720,165.3C741.8,171,764,117,785,133.3C807.3,149,829,235,851,272C872.7,309,895,299,916,282.7C938.2,267,960,245,982,240C1003.6,235,1025,245,1047,250.7C1069.1,256,1091,256,1113,218.7C1134.5,181,1156,107,1178,101.3C1200,96,1222,160,1244,165.3C1265.5,171,1287,117,1309,128C1330.9,139,1353,213,1375,245.3C1396.4,277,1418,267,1429,261.3L1440,256L1440,320L1429.1,320C1418.2,320,1396,320,1375,320C1352.7,320,1331,320,1309,320C1287.3,320,1265,320,1244,320C1221.8,320,1200,320,1178,320C1156.4,320,1135,320,1113,320C1090.9,320,1069,320,1047,320C1025.5,320,1004,320,982,320C960,320,938,320,916,320C894.5,320,873,320,851,320C829.1,320,807,320,785,320C763.6,320,742,320,720,320C698.2,320,676,320,655,320C632.7,320,611,320,589,320C567.3,320,545,320,524,320C501.8,320,480,320,458,320C436.4,320,415,320,393,320C370.9,320,349,320,327,320C305.5,320,284,320,262,320C240,320,218,320,196,320C174.5,320,153,320,131,320C109.1,320,87,320,65,320C43.6,320,22,320,11,320L0,320Z"></path></svg>