<?xml version="1.0" standalone="no"?>
<svg xmlns:xlink="http://www.w3.org/1999/xlink" id="wave" style="transform:rotate(0deg); transition: 0.3s" viewBox="0 0 1440 490" version="1.1" xmlns="http://www.w3.org/2000/svg"><defs><linearGradient id="sw-gradient-0" x1="0" x2="0" y1="1" y2="0"><stop stop-color="rgba(84, 84, 239, 1)" offset="0%"/><stop stop-color="rgba(62, 62, 215, 1)" offset="100%"/></linearGradient></defs><path style="transform:translate(0, 0px); opacity:1" fill="url(#sw-gradient-0)" d="M0,98L13.3,106.2C26.7,114,53,131,80,171.5C106.7,212,133,278,160,302.2C186.7,327,213,310,240,277.7C266.7,245,293,196,320,179.7C346.7,163,373,180,400,220.5C426.7,261,453,327,480,318.5C506.7,310,533,229,560,179.7C586.7,131,613,114,640,98C666.7,82,693,65,720,114.3C746.7,163,773,278,800,269.5C826.7,261,853,131,880,81.7C906.7,33,933,65,960,73.5C986.7,82,1013,65,1040,49C1066.7,33,1093,16,1120,32.7C1146.7,49,1173,98,1200,163.3C1226.7,229,1253,310,1280,285.8C1306.7,261,1333,131,1360,122.5C1386.7,114,1413,229,1440,277.7C1466.7,327,1493,310,1520,302.2C1546.7,294,1573,294,1600,269.5C1626.7,245,1653,196,1680,147C1706.7,98,1733,49,1760,81.7C1786.7,114,1813,229,1840,285.8C1866.7,343,1893,343,1907,343L1920,343L1920,490L1906.7,490C1893.3,490,1867,490,1840,490C1813.3,490,1787,490,1760,490C1733.3,490,1707,490,1680,490C1653.3,490,1627,490,1600,490C1573.3,490,1547,490,1520,490C1493.3,490,1467,490,1440,490C1413.3,490,1387,490,1360,490C1333.3,490,1307,490,1280,490C1253.3,490,1227,490,1200,490C1173.3,490,1147,490,1120,490C1093.3,490,1067,490,1040,490C1013.3,490,987,490,960,490C933.3,490,907,490,880,490C853.3,490,827,490,800,490C773.3,490,747,490,720,490C693.3,490,667,490,640,490C613.3,490,587,490,560,490C533.3,490,507,490,480,490C453.3,490,427,490,400,490C373.3,490,347,490,320,490C293.3,490,267,490,240,490C213.3,490,187,490,160,490C133.3,490,107,490,80,490C53.3,490,27,490,13,490L0,490Z"/><defs><linearGradient id="sw-gradient-1" x1="0" x2="0" y1="1" y2="0"><stop stop-color="rgba(86, 86, 240, 1)" offset="0%"/><stop stop-color="rgba(83, 83, 237, 1)" offset="100%"/></linearGradient></defs><path style="transform:translate(0, 50px); opacity:0.9" fill="url(#sw-gradient-1)" d="M0,98L13.3,155.2C26.7,212,53,327,80,359.3C106.7,392,133,343,160,326.7C186.7,310,213,327,240,326.7C266.7,327,293,310,320,294C346.7,278,373,261,400,212.3C426.7,163,453,82,480,49C506.7,16,533,33,560,106.2C586.7,180,613,310,640,375.7C666.7,441,693,441,720,400.2C746.7,359,773,278,800,253.2C826.7,229,853,261,880,236.8C906.7,212,933,131,960,106.2C986.7,82,1013,114,1040,179.7C1066.7,245,1093,343,1120,359.3C1146.7,376,1173,310,1200,245C1226.7,180,1253,114,1280,122.5C1306.7,131,1333,212,1360,204.2C1386.7,196,1413,98,1440,106.2C1466.7,114,1493,229,1520,294C1546.7,359,1573,376,1600,359.3C1626.7,343,1653,294,1680,277.7C1706.7,261,1733,278,1760,310.3C1786.7,343,1813,392,1840,367.5C1866.7,343,1893,245,1907,196L1920,147L1920,490L1906.7,490C1893.3,490,1867,490,1840,490C1813.3,490,1787,490,1760,490C1733.3,490,1707,490,1680,490C1653.3,490,1627,490,1600,490C1573.3,490,1547,490,1520,490C1493.3,490,1467,490,1440,490C1413.3,490,1387,490,1360,490C1333.3,490,1307,490,1280,490C1253.3,490,1227,490,1200,490C1173.3,490,1147,490,1120,490C1093.3,490,1067,490,1040,490C1013.3,490,987,490,960,490C933.3,490,907,490,880,490C853.3,490,827,490,800,490C773.3,490,747,490,720,490C693.3,490,667,490,640,490C613.3,490,587,490,560,490C533.3,490,507,490,480,490C453.3,490,427,490,400,490C373.3,490,347,490,320,490C293.3,490,267,490,240,490C213.3,490,187,490,160,490C133.3,490,107,490,80,490C53.3,490,27,490,13,490L0,490Z"/></svg>