<?xml version="1.0" standalone="no"?><svg xmlns="http://www.w3.org/2000/svg" viewBox="0 0 1440 320"><path fill="#EFF3F6" fill-opacity="1" d="M0,0L20,32C40,64,80,128,120,149.3C160,171,200,149,240,154.7C280,160,320,192,360,197.3C400,203,440,181,480,170.7C520,160,560,160,600,149.3C640,139,680,117,720,106.7C760,96,800,96,840,85.3C880,75,920,53,960,85.3C1000,117,1040,203,1080,229.3C1120,256,1160,224,1200,176C1240,128,1280,64,1320,48C1360,32,1400,64,1420,80L1440,96L1440,320L1420,320C1400,320,1360,320,1320,320C1280,320,1240,320,1200,320C1160,320,1120,320,1080,320C1040,320,1000,320,960,320C920,320,880,320,840,320C800,320,760,320,720,320C680,320,640,320,600,320C560,320,520,320,480,320C440,320,400,320,360,320C320,320,280,320,240,320C200,320,160,320,120,320C80,320,40,320,20,320L0,320Z"></path></svg>